<svg xmlns:dc="http://purl.org/dc/elements/1.1/" xmlns:cc="http://creativecommons.org/ns#" xmlns:rdf="http://www.w3.org/1999/02/22-rdf-syntax-ns#" xmlns:svg="http://www.w3.org/2000/svg" xmlns="http://www.w3.org/2000/svg" xmlns:sodipodi="http://sodipodi.sourceforge.net/DTD/sodipodi-0.dtd" xmlns:inkscape="http://www.inkscape.org/namespaces/inkscape" version="1.1" x="0px" y="0px" viewBox="0 0 100 125"><g transform="translate(0,-952.36218)"><path style="text-indent:0;text-transform:none;direction:ltr;block-progression:tb;baseline-shift:baseline;color:#000000;enable-background:accumulate;" d="m 50,959.37361 c -15.99257,0 -29,13.00742 -29,29 0,5.98078 2.43211,14.20829 5.28125,18.99999 l 22,37 a 2.0002,2.0002 0 0 0 3.4375,0 l 22,-37 C 76.56793,1002.5818 79,994.35438 79,988.37361 c 0,-15.99258 -13.00742,-29 -29,-29 z m 0,4 c 13.83082,0 25,11.16918 25,25 0,4.76783 -2.45693,13.16479 -4.71875,16.96879 L 50,1039.4361 29.71875,1005.3424 C 27.45699,1001.5385 25,993.14143 25,988.37361 c 0,-13.83082 11.16919,-25 25,-25 z m 0,10 c -8.2606,0 -15,6.7395 -15,15 0,8.26058 6.73942,14.99999 15,14.99999 8.26059,0 15,-6.73941 15,-14.99999 0,-8.26049 -6.73939,-15 -15,-15 z m 0,4 c 6.09881,0 11,4.90129 11,11 0,6.09882 -4.90117,11 -11,11 -6.09882,0 -11,-4.90118 -11,-11 0,-6.0987 4.9012,-11 11,-11 z" fill="#000000" fill-opacity="1" stroke="none" marker="none" visibility="visible" display="inline" overflow="visible"/></g></svg>